<svg width="24" height="30" viewBox="0 0 24 30" fill="none" xmlns="http://www.w3.org/2000/svg">
<path d="M12.6116 30C9.04042 30 6.08787 29.1884 3.75395 27.5653C1.44815 25.9147 0.196837 23.5076 0 20.3439H9.95431C10.0949 22.022 10.8541 22.8611 12.232 22.8611C12.7381 22.8611 13.1599 22.751 13.4974 22.5309C13.8629 22.2834 14.0457 21.912 14.0457 21.4168C14.0457 20.729 13.6661 20.1788 12.9069 19.7662C12.1476 19.326 10.9666 18.8308 9.3638 18.2806C7.45167 17.6204 5.86292 16.9739 4.59754 16.3411C3.36028 15.7084 2.29174 14.7868 1.39192 13.5763C0.492092 12.3659 0.056239 10.8116 0.0843585 8.91334C0.0843585 7.01513 0.57645 5.40578 1.56063 4.08528C2.57294 2.73728 3.93673 1.71939 5.65202 1.03164C7.39543 0.343878 9.34974 0 11.5149 0C15.1705 0 18.0668 0.825308 20.2039 2.47593C22.3691 4.12655 23.5079 6.45117 23.6204 9.44979H13.5395C13.5114 8.62448 13.3005 8.03301 12.9069 7.67538C12.5132 7.31774 12.0351 7.13893 11.4728 7.13893C11.0791 7.13893 10.7557 7.27648 10.5026 7.55158C10.2496 7.79917 10.123 8.15681 10.123 8.62448C10.123 9.28473 10.4886 9.83494 11.2197 10.2751C11.9789 10.6878 13.174 11.1967 14.8049 11.8019C16.6889 12.4897 18.2355 13.1499 19.4446 13.7827C20.6819 14.4154 21.7504 15.2957 22.6503 16.4237C23.5501 17.5516 24 18.9684 24 20.674C24 22.4622 23.5501 24.0715 22.6503 25.5021C21.7504 26.9051 20.4429 28.0055 18.7276 28.8033C17.0123 29.6011 14.9736 30 12.6116 30Z" fill="#8A64FF"/>
</svg>
